<svg width="85" height="44" viewBox="0 0 85 44" fill="none" xmlns="http://www.w3.org/2000/svg">
<path d="M42.8337 38.4289L59.977 44V0L42.8337 5.57107V38.4289Z" fill="#4CC7E9"/>
<path d="M0 16.7376H2.93952V18.3892C3.29199 17.8087 3.78881 17.3289 4.3818 16.9964C4.97479 16.6639 5.64383 16.49 6.32402 16.4915C8.91802 16.4915 10.9187 18.4139 10.9187 21.8899V22.0625C10.9187 25.5379 8.94274 27.5103 6.32402 27.5103C5.64773 27.5373 4.97661 27.3822 4.3811 27.0612C3.78559 26.7402 3.28764 26.2651 2.93952 25.6859V30.887H0V16.7376ZM7.92916 22.0866V21.9139C7.92916 19.7695 6.86966 18.734 5.40932 18.734C3.87894 18.734 2.81532 19.7912 2.81532 21.9139V22.0866C2.81532 24.2064 3.82832 25.2419 5.40932 25.2419C7.04036 25.2166 7.92916 24.1324 7.92916 22.0866Z" fill="white"/>
<path d="M12.499 23.5406V16.7373H15.4138V23.1219C15.4138 24.5515 16.0065 25.2416 17.242 25.2416C18.4775 25.2416 19.4405 24.4781 19.4405 22.9245V16.7373H22.3553V27.2874H19.4652V25.6357C19.1492 26.2409 18.6628 26.7406 18.0659 27.0735C17.4689 27.4064 16.7875 27.5579 16.1054 27.5094C14.0294 27.5094 12.499 26.3012 12.499 23.5406Z" fill="white"/>
<path d="M24.6033 11.9551H27.5181V27.2627H24.6033V11.9551Z" fill="white"/>
<path d="M30.1368 24.157V18.8079H28.7783V16.7375H30.1368V14.4697H33.0516V16.7375H35.2748V18.8079H33.0516V23.8856C33.0516 24.7238 33.4713 25.1426 34.2124 25.1426C34.5929 25.158 34.9723 25.0906 35.3242 24.9452V27.2153C34.7519 27.4093 34.1498 27.5011 33.5455 27.4867C31.3476 27.4849 30.1368 26.3508 30.1368 24.157Z" fill="white"/>
<path d="M67.6101 16.7371H70.5496V18.7582C70.821 18.0876 71.2953 17.5182 71.9064 17.1294C72.5176 16.7405 73.235 16.5517 73.9588 16.5891V19.3004C71.7851 19.2757 70.5496 19.9905 70.5496 22.0116V27.2866H67.6101V16.7371Z" fill="white"/>
<path d="M75.1443 23.5406V16.7373H78.0591V23.1219C78.0591 24.5515 78.6518 25.2416 79.8867 25.2416C81.1216 25.2416 82.0852 24.4781 82.0852 22.9245V16.7373H85V27.2874H82.0852V25.6357C81.7691 26.2409 81.2827 26.7406 80.6858 27.0735C80.0889 27.4064 79.4075 27.5579 78.7254 27.5094C76.6747 27.5094 75.1443 26.3012 75.1443 23.5406Z" fill="white"/>
</svg>
