<svg width="300" height="32" viewBox="0 0 300 32" fill="none" xmlns="http://www.w3.org/2000/svg">
<path d="M33.1 15.8261C33.1 19.5478 33.1 23.2348 33.1 26.9565C33.0667 29.913 31.7333 31.2695 28.8667 31.3043C21.8333 31.3043 14.7667 31.3043 7.73335 31.3043C5.00001 31.3043 3.63335 29.8782 3.63335 27.0261C3.60001 19.6174 3.63335 12.2087 3.63335 4.79997C3.63335 1.87824 5.03335 0.452148 7.83334 0.452148C14.8333 0.452148 21.8333 0.452148 28.8 0.452148C31.7333 0.452148 33.1 1.87824 33.1 4.90432C33.1 8.52171 33.1 12.1739 33.1 15.8261ZM4.96668 15.6521C4.96668 19.4087 4.96668 23.1652 4.96668 26.9565C4.96668 28.9391 5.80001 29.8435 7.70001 29.8782C14.8 29.913 21.9 29.913 29 29.8782C30.9 29.8782 31.7 28.9739 31.7 26.9565C31.7 19.6174 31.7 12.2435 31.7 4.90432C31.7 2.81737 30.9 1.91302 28.9 1.91302C21.8667 1.87824 14.8 1.87824 7.76668 1.91302C5.76668 1.91302 4.96668 2.81737 4.96668 4.93911C4.93335 8.45215 4.96668 12.0695 4.96668 15.6521Z" fill="white"/>
<path d="M55.3667 15.8609C54.1 18.9218 53.0334 21.6 51.9 24.2087C51.7334 24.5913 51.2667 25.0435 50.9 25.0783C50.5334 25.1131 49.9334 24.7305 49.7667 24.3827C47.3667 18.5392 45 12.6957 42.6334 6.81744C44.2667 6.46961 44.3 6.46961 44.8667 7.96527C46.6667 12.5218 48.4667 17.0435 50.2667 21.6C50.4334 22.0174 50.6334 22.4 50.9334 23.0609C52.1 20.2087 53.1667 17.6348 54.1667 15.0261C54.3 14.6435 54.1334 14.0174 53.9334 13.5653C53.1 11.3044 52.2 9.07831 51.3334 6.85222C52.3667 6.43483 52.8667 6.71309 53.2334 7.68701C53.8334 9.46092 54.5667 11.1653 55.3667 13.3218C56.2 11.2 56.9334 9.46092 57.5334 7.72179C57.8667 6.74788 58.3667 6.40005 59.4334 6.88701C58.6 9.00874 57.8667 11.1653 56.9334 13.2522C56.5 14.2609 56.5334 15.0609 56.9667 16.0348C57.9667 18.2957 58.8334 20.5914 59.8667 23.0957C60.1334 22.5044 60.3334 22.1566 60.4667 21.8087C62.2667 17.2174 64.0667 12.5914 65.8667 8.00005C66.4334 6.53918 66.4667 6.53918 68.1667 6.78266C67.4334 8.55657 66.7334 10.2957 66.0334 12.0696C64.4 16.0696 62.8 20.0696 61.1667 24.0696C60.9334 24.6609 60.7667 25.2522 59.9334 25.2522C59.1 25.2522 58.9334 24.6609 58.7 24.1044C57.6334 21.4261 56.5667 18.8174 55.3667 15.8609Z" fill="white"/>
<path d="M141.967 18.0868C143.4 20.452 144.733 22.6433 146.133 24.9737C145.033 25.3911 144.3 25.1824 143.733 24.1737C142.8 22.5389 141.733 20.9737 140.8 19.3042C140.367 18.5737 139.9 18.2259 139.067 18.2607C137.967 18.3302 136.833 18.2955 135.733 18.2955C135.033 18.2955 134.733 18.6085 134.767 19.3389C134.8 20.9042 134.767 22.4694 134.767 24.0346C134.767 24.6607 134.8 25.1824 133.933 25.1824C133.133 25.1824 133.067 24.7302 133.067 24.0694C133.067 18.6085 133.1 13.1824 133.067 7.72156C133.067 6.74764 133.433 6.57373 134.267 6.57373C136.333 6.60851 138.367 6.57373 140.433 6.60851C143.2 6.6433 145.233 8.45199 145.8 11.3389C146.333 14.052 145.067 16.6259 142.667 17.7737C142.5 17.8085 142.3 17.9129 141.967 18.0868ZM134.8 12.2781C134.8 13.252 134.767 14.2607 134.8 15.2346C134.833 16.6955 134.833 16.6955 136.167 16.7303C137.6 16.765 139.033 16.765 140.5 16.7303C142.7 16.6607 144.233 14.9563 144.3 12.5563C144.367 10.2955 142.8 8.2433 140.7 8.10416C139.033 7.99982 137.367 8.10417 135.7 8.06938C135.067 8.06938 134.8 8.38243 134.8 9.00851C134.8 10.0868 134.8 11.1998 134.8 12.2781Z" fill="white"/>
<path d="M206.367 15.8259C206.367 13.1129 206.4 10.3999 206.367 7.65203C206.367 6.85203 206.6 6.5042 207.4 6.53899C209.467 6.60855 211.5 6.46942 213.567 6.60855C216.767 6.85203 219.1 8.59116 220.267 11.7564C221.267 14.4346 221.267 17.2172 220.267 19.8955C219.167 22.7477 217.133 24.5912 214.2 24.9042C211.9 25.1825 209.533 25.0086 207.233 25.0781C206.4 25.1129 206.4 24.5564 206.4 23.9303C206.367 21.2868 206.367 18.539 206.367 15.8259ZM208.033 15.7564C208.033 18.0172 208.067 20.2781 208.033 22.5042C208.033 23.3042 208.233 23.6868 209.067 23.652C210.4 23.6172 211.733 23.7216 213.067 23.6172C216.167 23.4086 218.5 21.2868 219.033 18.0868C219.267 16.6955 219.3 15.1999 219.067 13.8086C218.533 10.3303 216.133 8.24333 212.767 8.06942C211.6 7.99986 210.433 8.1042 209.267 8.03464C208.333 7.99986 208 8.3129 208.033 9.32159C208.067 11.4781 208.033 13.5999 208.033 15.7564Z" fill="white"/>
<path d="M79.7 15.7913C79.7 13.0783 79.7 10.3652 79.7 7.61738C79.7 7.06086 79.6666 6.5739 80.4333 6.5739C81.2 6.53912 81.3666 6.88695 81.3666 7.61738C81.3333 9.59999 81.4 11.5478 81.3333 13.5304C81.3 14.5739 81.5666 14.9913 82.6333 14.9565C85.3666 14.887 88.0666 14.887 90.8 14.9565C91.8333 14.9913 92.1666 14.5739 92.1333 13.5304C92.0666 11.5478 92.1333 9.59999 92.1 7.61738C92.1 6.92173 92.2333 6.53912 93.0333 6.5739C93.8333 6.60869 93.7333 7.13043 93.7333 7.65217C93.7333 13.0783 93.7333 18.5391 93.7333 23.9652C93.7333 24.5217 93.8666 25.1478 92.9666 25.1478C92.1333 25.1478 92.1 24.6609 92.1 24C92.1 21.913 92.0666 19.8261 92.1333 17.7391C92.1666 16.6609 91.8 16.313 90.8 16.3478C88.0666 16.4174 85.3666 16.4174 82.6333 16.3478C81.5666 16.313 81.3333 16.8 81.3666 17.8087C81.4333 19.7913 81.4 21.7391 81.3666 23.7217C81.3666 24.3478 81.6 25.1826 80.5 25.1478C79.5 25.113 79.7333 24.3478 79.7333 23.7913C79.7 21.113 79.7 18.4348 79.7 15.7913Z" fill="white"/>
<path d="M282.133 15.826C282.133 13.113 282.167 10.3652 282.133 7.65211C282.133 6.81732 282.4 6.53906 283.2 6.53906C286.433 6.57385 289.633 6.53906 292.867 6.57385C293.333 6.57385 293.9 6.43471 293.9 7.2695C293.9 8.24341 293.267 8.03472 292.733 8.03472C290.233 8.03472 287.733 8.03472 285.233 8.03472C283.833 8.03472 283.833 8.0695 283.8 9.4608C283.767 10.8521 283.833 12.2434 283.767 13.6347C283.733 14.6086 284.033 14.9912 285 14.9565C287 14.8869 289 14.9217 291 14.9565C291.333 14.9565 291.7 14.8869 292 14.9912C292.233 15.0956 292.6 15.4782 292.567 15.6173C292.5 15.8956 292.167 16.313 291.933 16.3478C290.933 16.4173 289.933 16.3825 288.933 16.3825C287.6 16.3825 286.267 16.4173 284.933 16.3825C284.067 16.3478 283.767 16.7304 283.767 17.5999C283.8 19.1652 283.833 20.7304 283.767 22.2956C283.733 23.3391 284.067 23.7217 285.1 23.6869C287.5 23.6173 289.867 23.6521 292.267 23.6521C292.667 23.6521 293.067 23.5478 293.433 23.6869C293.7 23.7912 293.967 24.1738 294 24.4869C294.033 24.6608 293.667 25.0782 293.467 25.113C292.867 25.2173 292.233 25.1478 291.633 25.1478C288.967 25.1478 286.3 25.1478 283.633 25.1478C282.167 25.1478 282.133 25.113 282.133 23.6521C282.133 21.0434 282.133 18.4347 282.133 15.826Z" fill="white"/>
<path d="M182.2 15.7565C182.2 13.0782 182.233 10.4347 182.2 7.75645C182.2 6.92167 182.333 6.53906 183.267 6.53906C186.433 6.60863 189.6 6.57385 192.767 6.57385C193.1 6.57385 193.467 6.57385 193.7 6.74776C193.867 6.85211 193.967 7.37385 193.867 7.51298C193.667 7.75645 193.3 8.03472 193.033 8.03472C190.6 8.0695 188.133 8.0695 185.7 8.0695C183.867 8.0695 183.867 8.0695 183.867 9.91298C183.867 11.1304 183.867 12.3478 183.867 13.5651C183.867 14.9565 183.9 14.9565 185.267 14.9565C187.367 14.9565 189.5 14.9565 191.6 14.9912C191.933 14.9912 192.467 15.1651 192.533 15.3738C192.8 16.1043 192.433 16.3825 191.7 16.3825C189.6 16.3478 187.467 16.3825 185.367 16.3825C183.867 16.3825 183.867 16.3825 183.833 18.0521C183.833 19.513 183.9 20.9391 183.833 22.3999C183.8 23.3738 184.1 23.7217 185.033 23.7217C187.467 23.6521 189.933 23.6869 192.367 23.6869C192.767 23.6869 193.167 23.6173 193.533 23.7217C193.767 23.7912 194.033 24.1738 194.033 24.4173C194.033 24.6608 193.767 24.9738 193.533 25.113C193.333 25.2521 193 25.1478 192.7 25.1478C189.6 25.1478 186.467 25.0782 183.367 25.1825C182.233 25.2173 182.1 24.7304 182.133 23.7565C182.2 21.0782 182.167 18.4347 182.2 15.7565C182.167 15.7565 182.167 15.7565 182.2 15.7565Z" fill="white"/>
<path d="M246.933 24.9391C245.733 25.426 245.1 25.0434 244.733 23.8608C244.333 22.6087 243.767 21.3913 243.3 20.1739C243.067 19.5478 242.7 19.3043 242.033 19.3043C239.967 19.3391 237.933 19.3391 235.867 19.3043C235.1 19.3043 234.633 19.5826 234.367 20.3478C233.933 21.5304 233.4 22.6782 233.033 23.8956C232.667 25.0782 232.033 25.426 230.833 24.9391C232 22.0521 233.133 19.2 234.3 16.313C235.467 13.3913 236.633 10.4347 237.833 7.513C238 7.13039 238.467 6.64344 238.833 6.60865C239.2 6.57387 239.8 6.95648 239.933 7.30431C242.267 13.1826 244.6 19.0608 246.933 24.9391ZM239.067 8.93909C238.967 8.93909 238.833 8.93909 238.733 8.93909C237.6 11.8608 236.433 14.7478 235.2 17.8434C237.7 17.8434 240 17.8434 242.533 17.8434C241.333 14.7826 240.2 11.8608 239.067 8.93909Z" fill="white"/>
<path d="M105.367 24.9739C107.733 19.026 110.067 13.2174 112.4 7.44344C112.567 7.06083 113.1 6.67822 113.467 6.67822C113.833 6.67822 114.333 7.09561 114.5 7.47822C116.833 13.2869 119.133 19.0956 121.467 24.9391C119.9 25.3565 119.9 25.3565 119.333 24C118.867 22.8174 118.367 21.6695 117.933 20.4869C117.667 19.7565 117.3 19.3739 116.467 19.4087C114.4 19.4434 112.367 19.4434 110.3 19.4087C109.567 19.4087 109.2 19.7217 108.933 20.3826C108.5 21.5652 107.967 22.713 107.567 23.9304C107.267 24.9739 106.667 25.4608 105.367 24.9739ZM117.1 17.913C115.867 14.7826 114.733 11.826 113.433 8.55648C112.133 11.8956 110.967 14.8174 109.767 17.913C112.3 17.913 114.567 17.913 117.1 17.913Z" fill="white"/>
<path d="M158.433 15.826C158.433 13.113 158.467 10.3652 158.433 7.65211C158.433 6.81732 158.7 6.53906 159.5 6.53906C162.733 6.57385 165.933 6.57385 169.167 6.53906C169.7 6.53906 170.167 6.57385 170.133 7.33906C170.1 8.03472 169.667 7.99993 169.2 7.99993C166.633 7.99993 164.1 7.99993 161.533 7.99993C160.167 7.99993 160.167 8.03472 160.133 9.4608C160.1 10.9217 160.167 12.3478 160.133 13.8086C160.1 14.713 160.433 15.026 161.3 15.026C163.367 14.9912 165.4 14.9912 167.467 15.026C167.833 15.026 168.233 15.1304 168.5 15.3043C168.633 15.4086 168.667 15.9652 168.533 16.1043C168.333 16.313 167.967 16.4173 167.667 16.4173C165.6 16.4521 163.567 16.4173 161.5 16.4521C160.133 16.4521 160.133 16.4869 160.1 17.913C160.067 19.9304 160.1 21.9825 160.1 23.9999C160.1 24.626 160.067 25.1478 159.233 25.113C158.4 25.113 158.4 24.5565 158.4 23.9652C158.433 21.2521 158.433 18.5391 158.433 15.826Z" fill="white"/>
<path d="M258.6 15.7217C258.6 13.2174 258.567 10.7478 258.633 8.24344C258.633 7.65214 258.133 6.60866 259.4 6.57387C260.7 6.53909 260.233 7.54779 260.233 8.17387C260.267 12.626 260.267 17.0782 260.267 21.5652C260.267 23.8956 260.133 23.6521 262.2 23.6521C264.633 23.6521 267.067 23.6521 269.533 23.6521C270 23.6521 270.567 23.4782 270.6 24.313C270.633 25.2869 270 25.113 269.467 25.113C266.233 25.113 263.033 25.0782 259.8 25.1478C258.867 25.1478 258.533 24.8695 258.567 23.8608C258.633 21.1826 258.6 18.4347 258.6 15.7217Z" fill="white"/>
<path d="M14.0334 23.7912C11.9334 18.3303 9.96669 13.2172 7.90002 7.82594C9.16669 7.82594 10.2667 7.75637 11.3334 7.86072C11.6667 7.8955 12.1 8.31289 12.2334 8.66072C13.4334 11.7912 14.5667 14.9216 15.7 18.052C15.8334 18.3999 15.8667 18.852 15.7334 19.1999C15.2667 20.6259 14.7 22.0172 14.0334 23.7912Z" fill="white"/>
<path d="M22.5 23.7564C20.4334 18.3651 18.4667 13.2172 16.4 7.82594C17.6334 7.82594 18.7334 7.75637 19.8334 7.86072C20.1667 7.8955 20.6 8.27811 20.7334 8.62594C21.9334 11.7216 23.1 14.8868 24.2334 18.0172C24.3667 18.3651 24.4 18.852 24.2667 19.1999C23.7667 20.6259 23.1667 22.052 22.5 23.7564Z" fill="white"/>
<path d="M24.7667 7.86084C26.2 7.86084 27.3333 7.86084 28.8 7.86084C28.0667 9.46084 27.4333 10.9217 26.6333 12.6956C25.9333 10.9565 25.3667 9.49562 24.7667 7.86084Z" fill="white"/>
</svg>
