<svg width="380" height="96" viewBox="0 0 380 96" fill="none" xmlns="http://www.w3.org/2000/svg">
<path d="M47.6202 0C21.4051 0 0 21.5758 0 48C0 74.4242 21.4051 96 47.6202 96C74.0759 96 95.2405 74.4242 95.2405 48C95.2405 21.5758 74.0759 0 47.6202 0ZM47.6202 88.7273C37.2785 88.7273 28.6203 80.2424 28.6203 69.5758C28.6203 58.9091 37.038 50.4242 47.6202 50.4242C57.962 50.4242 66.6203 58.9091 66.6203 69.5758C66.6203 80.2424 57.962 88.7273 47.6202 88.7273Z" fill="#F1F2F2"/>
<path d="M114.481 84.8485L128.911 53.3333C129.152 53.0909 129.392 52.8485 129.633 52.8485H130.114C130.595 52.8485 130.835 53.0909 130.835 53.3333L145.025 84.8485C145.266 85.5758 145.025 86.0606 144.304 86.0606H140.215C139.494 86.0606 139.253 85.8182 138.772 85.0909L136.848 80H122.899L120.734 85.0909C120.494 85.5758 120.013 86.0606 119.291 86.0606H115.203C114.722 86.0606 114.24 85.5758 114.481 84.8485ZM134.443 74.9091L129.873 64.7273L125.304 74.9091H134.443Z" fill="#F1F2F2"/>
<path d="M148.152 54.303C148.152 53.8182 148.633 53.3333 149.114 53.3333H153.443C153.924 53.3333 154.405 53.8182 154.405 54.303V73.4545C154.405 77.3333 157.051 80.4848 161.139 80.4848C165.228 80.4848 167.873 77.3333 167.873 73.4545V54.303C167.873 53.8182 168.354 53.3333 168.835 53.3333H173.165C173.646 53.3333 174.127 53.8182 174.127 54.303V73.697C174.127 80.7273 168.595 86.5455 161.139 86.5455C153.924 86.5455 148.152 80.7273 148.152 73.697V54.303Z" fill="#F1F2F2"/>
<path d="M181.342 54.303C181.342 53.8182 181.823 53.3333 182.063 53.3333H193.127C202.025 53.3333 209.481 60.6061 209.481 69.5758C209.481 78.5455 202.266 86.0606 193.127 86.0606H182.063C181.582 86.0606 181.342 85.5757 181.342 85.0909V54.303ZM192.646 80.4848C198.658 80.4848 202.987 75.8788 202.987 69.8182C202.987 63.7576 198.658 59.1515 192.646 59.1515H187.354V80.4848H192.646Z" fill="#F1F2F2"/>
<path d="M215.494 54.303C215.494 53.8182 215.975 53.3333 216.456 53.3333H220.785C221.266 53.3333 221.747 53.8182 221.747 54.303V85.3333C221.747 85.8182 221.266 86.303 220.785 86.303H216.456C215.975 86.303 215.494 85.8182 215.494 85.3333V54.303Z" fill="#F1F2F2"/>
<path d="M243.873 52.8485C253.253 52.8485 260.468 60.3636 260.468 69.8182C260.468 79.2727 253.013 86.5455 243.873 86.5455C234.494 86.5455 227.278 79.0303 227.278 69.8182C227.278 60.3636 234.734 52.8485 243.873 52.8485ZM243.873 80.4849C249.646 80.4849 254.456 75.6364 254.456 69.8182C254.456 64 249.646 59.1515 243.873 59.1515C238.101 59.1515 233.291 64 233.291 69.8182C233.291 75.6364 238.101 80.4849 243.873 80.4849Z" fill="#F1F2F2"/>
<path d="M206.595 24.7273L199.38 36.1212C199.139 36.6061 198.418 36.8485 197.937 36.8485H195.291C194.81 36.8485 194.329 36.6061 193.848 36.1212L186.633 24.7273V41.9394C186.633 42.4242 186.152 42.9091 185.671 42.9091H181.342C180.861 42.9091 180.38 42.4242 180.38 41.9394V17.4545V11.1515C180.38 10.6667 180.861 10.1818 181.342 10.1818H183.025H183.987C184.228 10.1818 184.709 10.4242 184.949 10.6667L196.253 29.5757H196.494L207.797 10.6667C208.038 10.4242 208.519 10.1818 208.76 10.1818H209.722H211.646C212.127 10.1818 212.608 10.6667 212.608 11.1515V17.4545V41.9394C212.608 42.4242 212.127 42.9091 211.646 42.9091H207.316C206.835 42.9091 206.354 42.4242 206.354 41.9394V24.7273H206.595Z" fill="#F1F2F2"/>
<path d="M145.266 41.697L159.696 10.1818C159.696 9.9394 159.937 9.69697 160.418 9.69697H160.899C161.38 9.69697 161.62 9.9394 161.62 10.1818L175.81 41.697C176.051 42.4242 175.81 42.9091 175.089 42.9091H171C170.278 42.9091 170.038 42.6667 169.557 41.9394L167.392 36.8485H153.443L151.279 41.9394C151.038 42.4242 150.557 42.9091 149.835 42.9091H145.747C145.266 42.9091 145.025 42.1818 145.266 41.697ZM165.228 31.7576L160.658 21.5758H160.418L155.848 31.7576H165.228Z" fill="#F1F2F2"/>
<path d="M220.544 11.1515C220.544 10.6667 221.025 10.1818 221.506 10.1818H232.089C237.62 10.1818 241.949 13.8182 241.949 18.9091C241.949 22.5454 239.063 25.2121 236.899 26.4242C239.304 27.1515 242.911 29.8182 242.911 33.9394C242.911 39.2727 238.582 42.9091 232.81 42.9091H221.266C220.785 42.9091 220.304 42.4242 220.304 41.9394L220.544 11.1515ZM231.367 24C233.772 24 235.456 22.0606 235.456 19.8788C235.456 17.697 233.772 16 231.367 16H226.316V24.2424H231.367V24ZM232.089 37.3333C234.494 37.3333 236.177 35.3939 236.177 32.9697C236.177 30.5454 233.772 28.8485 231.367 28.8485H226.316V37.0909H232.089V37.3333Z" fill="#F1F2F2"/>
<path d="M248.443 11.1515C248.443 10.6667 248.924 10.1818 249.405 10.1818H262.633C268.165 10.1818 272.734 14.5454 272.734 20.1212C272.734 24.4848 269.848 27.8788 265.76 29.5757L272.013 41.4545C272.253 42.1818 272.013 42.9091 271.291 42.9091H266.481C266 42.9091 265.76 42.6667 265.76 42.4242L259.506 30.0606H254.456V41.9394C254.456 42.4242 253.975 42.9091 253.494 42.9091H249.165C248.684 42.9091 248.203 42.4242 248.203 41.9394V11.1515H248.443ZM261.911 24.9697C264.316 24.9697 266.481 22.7879 266.481 20.1212C266.481 17.697 264.316 15.5151 261.911 15.5151H254.456V24.7273H261.911V24.9697Z" fill="#F1F2F2"/>
<path d="M278.987 11.1515C278.987 10.6667 279.468 10.1818 279.949 10.1818H284.278C284.759 10.1818 285.24 10.6667 285.24 11.1515V42.1818C285.24 42.6667 284.759 43.1515 284.278 43.1515H279.949C279.468 43.1515 278.987 42.6667 278.987 42.1818V11.1515Z" fill="#F1F2F2"/>
<path d="M292.696 11.1515C292.696 10.6667 293.177 10.1818 293.418 10.1818H304.481C313.38 10.1818 320.835 17.4545 320.835 26.4242C320.835 35.3939 313.62 42.9091 304.481 42.9091H293.418C292.937 42.9091 292.696 42.4242 292.696 41.9394V11.1515ZM303.76 37.0909C309.772 37.0909 314.101 32.4848 314.101 26.4242C314.101 20.3636 309.772 15.7576 303.76 15.7576H298.468V37.0909H303.76Z" fill="#F1F2F2"/>
<path d="M359.316 11.1515C359.316 10.6667 359.797 10.1818 360.278 10.1818H379.038C379.519 10.1818 380 10.6667 380 11.1515V15.0303C380 15.5151 379.519 16 379.038 16H365.329V23.7576H376.873C377.354 23.7576 377.835 24.2424 377.835 24.7273V28.6061C377.835 29.0909 377.354 29.5757 376.873 29.5757H365.329V37.8182H379.038C379.519 37.8182 380 38.303 380 38.7879V42.6667C380 43.1515 379.519 43.6364 379.038 43.6364H360.278C359.797 43.6364 359.316 43.1515 359.316 42.6667V11.1515Z" fill="#F1F2F2"/>
<path d="M142.38 37.8182L142.139 37.0909L141.658 35.6364L140.937 33.4546C140.696 32.9697 140.215 32.7273 139.734 33.2121C139.734 33.2121 139.253 33.9394 138.291 34.4243C138.051 34.6667 137.81 34.9091 137.57 34.9091C137.329 34.9091 137.329 35.1515 137.089 35.1515C135.405 36.1212 133.722 36.6061 131.797 36.6061C125.785 36.6061 121.456 31.7576 121.456 25.9394C121.456 20.1212 125.785 15.0303 131.797 15.0303C132.278 15.0303 132.76 15.0303 133.481 15.2727C135.405 15.5152 137.329 16.4849 138.772 17.697L139.734 18.4243C140.215 18.9091 140.696 18.6667 140.937 18.1818L141.899 14.7879C142.139 14.303 141.899 13.5758 141.418 13.0909L140.937 12.8485C140.937 12.8485 140.696 12.8485 140.696 12.6061L140.215 12.3636C137.81 10.6667 134.924 9.9394 131.316 9.9394C121.937 9.9394 114.481 17.4546 114.481 26.9091C114.481 36.3637 121.937 43.6364 131.316 43.6364C134.924 43.6364 138.291 42.4243 141.177 40.2424C141.418 40 141.658 39.7576 142.139 39.5152C142.38 38.7879 142.38 38.303 142.38 37.8182Z" fill="#F1F2F2"/>
<path d="M351.861 26.6667H346.81H346.57H342.962C342.481 26.6667 342 27.1515 342 27.6364V31.2727C342 31.7576 342.481 32 342.962 32H346.57H346.81V32.4848V36.1212C345.848 36.6061 343.924 37.3333 341.278 37.3333C335.506 37.3333 330.937 32.4848 330.937 26.6667C330.937 20.8485 335.506 15.7576 341.278 15.7576C342.962 15.7576 344.646 16.2424 346.329 17.2121C346.57 17.2121 346.81 17.4545 346.81 17.697C347.051 17.9394 347.532 18.1818 347.772 18.4242C347.772 18.4242 347.772 18.4242 348.013 18.6667C348.494 19.1515 348.734 19.3939 348.734 19.3939C349.215 19.8788 349.696 19.8788 349.937 19.1515L351.62 15.2727C351.861 14.7879 351.62 14.0606 351.139 13.5757L350.899 13.3333C349.937 12.8485 349.215 12.1212 348.253 11.8788L348.013 11.6364C348.013 11.6364 348.013 11.6364 347.772 11.6364C345.608 10.6667 343.443 10.1818 341.278 10.1818C332.139 10.1818 324.684 17.697 324.684 27.1515C324.684 36.6061 332.139 43.8788 341.278 43.8788C348.013 43.8788 352.823 40.7273 352.823 40.7273C353.063 40.4848 353.304 40.2424 353.304 40V32.9697V32.2424V28.1212C352.823 27.1515 352.342 26.6667 351.861 26.6667Z" fill="#F1F2F2"/>
</svg>
