<svg width="20" height="20" viewBox="0 0 20 20" fill="none" xmlns="http://www.w3.org/2000/svg">
<path fill-rule="evenodd" clip-rule="evenodd" d="M11.3333 1.33333C11.3333 2.06971 10.7364 2.66667 10 2.66667C9.26362 2.66667 8.66667 2.06971 8.66667 1.33333C8.66667 0.596954 9.26362 0 10 0C10.7364 0 11.3333 0.596954 11.3333 1.33333ZM16 10C16 13.3137 13.3137 16 10 16C6.68629 16 4 13.3137 4 10C4 6.68629 6.68629 4 10 4C13.3137 4 16 6.68629 16 10ZM20 10C20 10.7364 19.403 11.3333 18.6667 11.3333C17.9303 11.3333 17.3333 10.7364 17.3333 10C17.3333 9.26362 17.9303 8.66667 18.6667 8.66667C19.403 8.66667 20 9.26362 20 10ZM1.33333 11.3333C2.06971 11.3333 2.66667 10.7364 2.66667 10C2.66667 9.26362 2.06971 8.66667 1.33333 8.66667C0.596954 8.66667 0 9.26362 0 10C0 10.7364 0.596954 11.3333 1.33333 11.3333ZM10 20C10.7364 20 11.3333 19.403 11.3333 18.6667C11.3333 17.9303 10.7364 17.3333 10 17.3333C9.26362 17.3333 8.66667 17.9303 8.66667 18.6667C8.66667 19.403 9.26362 20 10 20ZM17.0711 4.81455C16.5504 5.33525 15.7061 5.33525 15.1854 4.81455C14.6647 4.29385 14.6647 3.44963 15.1854 2.92893C15.7061 2.40823 16.5504 2.40823 17.0711 2.92893C17.5918 3.44963 17.5918 4.29385 17.0711 4.81455ZM2.92894 17.0711C3.44963 17.5918 4.29385 17.5918 4.81455 17.0711C5.33525 16.5504 5.33525 15.7061 4.81455 15.1854C4.29385 14.6647 3.44963 14.6647 2.92894 15.1854C2.40824 15.7061 2.40824 16.5504 2.92894 17.0711ZM15.1854 17.0711C14.6648 16.5504 14.6648 15.7061 15.1854 15.1854C15.7061 14.6647 16.5504 14.6647 17.0711 15.1854C17.5918 15.7061 17.5918 16.5504 17.0711 17.0711C16.5504 17.5918 15.7061 17.5918 15.1854 17.0711ZM2.92894 2.92894C2.40824 3.44963 2.40824 4.29385 2.92894 4.81455C3.44964 5.33525 4.29386 5.33525 4.81456 4.81455C5.33525 4.29385 5.33525 3.44963 4.81456 2.92894C4.29386 2.40824 3.44964 2.40824 2.92894 2.92894Z" fill="black"/>
</svg>
