<svg width="20" height="20" viewBox="0 0 20 20" fill="none" xmlns="http://www.w3.org/2000/svg">
<path fill-rule="evenodd" clip-rule="evenodd" d="M10 20C7.25543 20 4.76911 18.8943 2.96215 17.1041C2.9399 17.0821 2.91776 17.0599 2.89571 17.0377C1.1056 15.2307 0 12.7445 0 10C0 4.47716 4.47714 1.03205e-05 9.99998 0C9.99999 0 9.99999 0 10 0C15.5228 0 20 4.47715 20 10C20 15.5228 15.5228 20 10 20ZM10 19C14.9706 19 19 14.9706 19 10C19 5.02944 14.9706 1 10 1C9.99999 1 9.99999 1 9.99998 1L10 10V19Z" fill="black"/>
</svg>
