<svg width="20" height="20" viewBox="0 0 20 20" fill="none" xmlns="http://www.w3.org/2000/svg">
<path fill-rule="evenodd" clip-rule="evenodd" d="M18.846 11.6667C18.7822 12.0071 18.6993 12.3409 18.5984 12.6667H10V11.6667H18.846ZM18.9757 10.6667C18.9918 10.4465 19 10.2242 19 10C19 9.8884 18.998 9.77728 18.9939 9.66667H10V10V10.6667H18.9757ZM18.6946 7.66667C18.782 7.99306 18.8514 8.32676 18.9019 8.66667H10V7.66667H18.6946ZM18.3625 6.66667C18.2252 6.32235 18.0672 5.98851 17.89 5.66667H10V6.66667H18.3625ZM16.3944 3.66667C16.7032 3.97843 16.9894 4.31265 17.2503 4.66667H10V3.66667H16.3944ZM15.2187 2.66667C13.7468 1.61728 11.9455 1 10 1V2.66667H15.2187ZM20 10C20 11.2682 19.7639 12.4812 19.3333 13.5976V13.6667H19.3064C17.8439 17.3755 14.2285 20 10 20C7.24676 20 4.7534 18.8873 2.94505 17.0871L2.92893 17.0711L2.91285 17.055C1.95899 16.0968 1.19816 14.9463 0.693601 13.6667H0.666668V13.5976C0.236072 12.4812 0 11.2682 0 10C0 4.47715 4.47715 0 10 0C15.5228 0 20 4.47715 20 10ZM10 13.6667H18.2217C18.0674 14.0121 17.892 14.3459 17.6971 14.6667H10V13.6667ZM10 15.6667V16.6667H16V16.7083C16.3577 16.3881 16.6897 16.0398 16.9924 15.6667H10ZM10 19V17.6667H14.7165C13.345 18.5122 11.7294 19 10 19Z" fill="black"/>
</svg>
