<svg width="22" height="22" viewBox="0 0 22 22" fill="none" xmlns="http://www.w3.org/2000/svg">
<path fill-rule="evenodd" clip-rule="evenodd" d="M9 2C9 1.73478 9.10536 1.48043 9.29289 1.29289C9.48043 1.10536 9.73478 1 10 1H20C20.2652 1 20.5196 1.10536 20.7071 1.29289C20.8946 1.48043 21 1.73478 21 2V12C21 12.2652 20.8946 12.5196 20.7071 12.7071C20.5196 12.8946 20.2652 13 20 13C19.7348 13 19.4804 12.8946 19.2929 12.7071C19.1054 12.5196 19 12.2652 19 12V3H10C9.73478 3 9.48043 2.89464 9.29289 2.70711C9.10536 2.51957 9 2.26522 9 2Z" fill="white"/>
<path fill-rule="evenodd" clip-rule="evenodd" d="M20.708 1.29196C20.8011 1.38485 20.875 1.4952 20.9254 1.61669C20.9758 1.73818 21.0018 1.86842 21.0018 1.99996C21.0018 2.13149 20.9758 2.26173 20.9254 2.38322C20.875 2.50471 20.8011 2.61507 20.708 2.70796L2.70798 20.708C2.52021 20.8957 2.26553 21.0012 1.99998 21.0012C1.73443 21.0012 1.47975 20.8957 1.29198 20.708C1.10421 20.5202 0.998718 20.2655 0.998718 20C0.998718 19.7344 1.10421 19.4797 1.29198 19.292L19.292 1.29196C19.3849 1.19883 19.4952 1.12494 19.6167 1.07453C19.7382 1.02412 19.8684 0.998169 20 0.998169C20.1315 0.998169 20.2618 1.02412 20.3832 1.07453C20.5047 1.12494 20.6151 1.19883 20.708 1.29196Z" fill="white"/>
</svg>
