<svg width="560" height="243" viewBox="0 0 560 243" fill="none" xmlns="http://www.w3.org/2000/svg">
<rect width="560" height="243" fill="black"/>
<path d="M65.1456 167.032H84.598V171.123H69.8768V178.201H83.4959V182.067H69.8768V189.996H84.8602V194.088H65.1456V167.032ZM88.6212 167.032H94.2574L100.386 176.58L106.794 167.032H112.088L103.15 180.059L112.727 194.088H106.979L100.244 183.739L93.3903 194.088H87.9785L97.5546 180.059L88.6212 167.032ZM134.217 175.631C133.42 172.517 131.411 170.242 127.483 170.242C121.697 170.242 119.272 175.364 119.272 180.544C119.272 185.744 121.697 190.865 127.483 190.865C131.686 190.865 133.991 187.712 134.376 183.776H138.986C138.61 190.262 134.028 194.729 127.483 194.729C119.378 194.729 114.539 188.285 114.539 180.544C114.539 172.833 119.378 166.378 127.483 166.378C133.581 166.414 138.383 169.787 138.947 175.631H134.217ZM145.79 167.032H165.232V171.123H150.516V178.201H164.146V182.067H150.516V189.996H165.506V194.088H145.79V167.032ZM172.669 167.032H192.11V171.123H177.4V178.201H191.019V182.067H177.4V189.996H192.379V194.088H172.669V167.032ZM199.551 167.032H210.755C219.077 167.032 222.67 173.089 222.67 180.541C222.67 188.027 219.077 194.085 210.755 194.085H199.551V167.032ZM204.282 190.221H208.934C216.347 190.221 217.939 185.98 217.939 180.544C217.939 175.135 216.342 170.895 208.934 170.895H204.282V190.221ZM246.682 183.47L236.544 167.032H242.031L249.182 179.148L256.22 167.032H261.515L251.419 183.47V194.088H246.687L246.682 183.47ZM288.394 180.544C288.394 188.285 283.554 194.729 275.461 194.729C267.358 194.729 262.511 188.285 262.511 180.544C262.511 172.833 267.358 166.378 275.461 166.378C283.553 166.378 288.394 172.833 288.394 180.544ZM267.244 180.544C267.244 185.744 269.664 190.865 275.461 190.865C281.244 190.865 283.663 185.744 283.663 180.544C283.663 175.364 281.244 170.242 275.461 170.242C269.662 170.242 267.244 175.364 267.244 180.544ZM294.109 167.032H298.847V182.789C298.847 186.437 299.071 190.64 305.195 190.64C311.33 190.64 311.55 186.437 311.55 182.789V167.032H316.281V184.35C316.281 191.279 311.861 194.729 305.195 194.729C298.531 194.729 294.109 191.281 294.109 184.35V167.032ZM323.629 167.032H336.539C342.439 167.032 345.467 169.761 345.467 174.338C345.467 179.538 341.867 180.863 341.011 181.159V181.239C342.631 181.464 345.017 182.68 345.017 186.965C345.017 190.107 345.472 192.983 346.495 194.091H341.427C340.701 192.915 340.701 191.431 340.701 190.107C340.701 185.143 339.68 182.949 335.327 182.949H328.368V194.091H323.635L323.629 167.032ZM328.362 179.336H336.119C339.105 179.336 340.732 177.862 340.732 175.027C340.732 171.577 338.5 170.892 336.037 170.892H328.362V179.336ZM362.499 167.029H367.426L374.2 188.446H374.276L381.196 167.029H386.011L376.77 194.088H371.511L362.499 167.029ZM390.892 167.029H395.611V194.088H390.892V167.029ZM406.251 185.064C406.251 189.234 409.315 190.865 413.094 190.865C417.26 190.865 418.814 188.818 418.814 186.772C418.814 184.688 417.674 183.846 416.575 183.433C414.68 182.72 412.217 182.217 408.519 181.197C403.9 179.942 402.539 177.142 402.539 174.336C402.539 168.927 407.528 166.376 412.414 166.376C418.064 166.376 422.792 169.381 422.792 175.027H418.064C417.836 171.536 415.482 170.242 412.221 170.242C410.034 170.242 407.276 171.044 407.276 173.773C407.276 175.671 408.55 176.726 410.489 177.261C410.902 177.37 416.884 178.923 418.282 179.336C421.844 180.395 423.553 183.429 423.553 186.249C423.553 192.309 418.17 194.729 412.796 194.729C406.635 194.729 401.631 191.764 401.52 185.063L406.251 185.064ZM429.973 167.029H434.701V194.088H429.973V167.029ZM466.766 180.544C466.766 188.285 461.916 194.729 453.821 194.729C445.723 194.729 440.883 188.285 440.883 180.544C440.883 172.833 445.723 166.376 453.821 166.376C461.916 166.376 466.766 172.833 466.766 180.544ZM445.611 180.544C445.611 185.744 448.033 190.865 453.821 190.865C459.615 190.865 462.041 185.744 462.041 180.544C462.041 175.363 459.615 170.242 453.821 170.242C448.032 170.242 445.611 175.363 445.611 180.544ZM472.942 167.029H477.93L490.272 186.962H490.343V167.029H494.851V194.088H489.859L477.556 174.189H477.453V194.088H472.946L472.942 167.029Z" fill="white"/>
<path d="M362.604 46.0083C333.484 46.0083 316.671 67.8682 316.671 97.8262C316.671 127.784 333.484 149.644 362.604 149.644C391.723 149.644 408.535 127.784 408.535 97.8262C408.535 67.8667 391.723 46.0083 362.604 46.0083ZM362.604 132.211C344.108 132.211 336.975 115.158 336.975 97.8247C336.975 80.4913 344.108 63.4373 362.604 63.4373C381.096 63.4373 388.232 80.4928 388.232 97.8247C388.232 115.155 381.098 132.211 362.604 132.211ZM65.1457 48.9116H138.134V66.3467H85.453V88.0412H134.581V105.045H85.453V129.298H138.134V146.738H65.1457V48.9116ZM146.834 146.738H167.137V117.392H185.534C210.39 117.392 227.084 105.147 227.084 83.1517C227.084 61.1551 210.385 48.9116 185.534 48.9116H146.839L146.834 146.738ZM185.531 99.9597H167.134V66.3406L167.131 66.3376H185.531C198.292 66.3376 206.783 71.9043 206.783 83.1471C206.782 94.3914 198.292 99.9597 185.531 99.9597ZM437.066 48.9116H416.208V146.738H436.105V107.107C436.105 96.2759 435.709 86.6411 435.347 78.1453C437.696 83.0393 444.811 97.7548 448.121 103.284L474.017 146.738H494.857V48.9116H474.964V87.5507C474.964 98.3865 475.358 109.005 475.719 117.507C473.369 112.612 466.256 97.8976 462.94 92.3673L437.066 48.9116ZM250.137 114.368C250.137 127.515 261.055 132.634 272.665 132.634C280.262 132.634 292.563 130.422 292.563 120.321C292.563 109.664 277.512 107.651 263.006 103.776C247.786 99.7486 233.15 94.0209 233.15 75.8979C233.15 55.6976 252.214 46.0083 270.037 46.0083C290.621 46.0083 309.545 55.0068 309.545 77.84H289.242C288.549 65.9382 279.434 62.8922 269.073 62.8922C262.157 62.8922 253.449 65.7955 253.449 74.1031C253.449 81.7106 258.409 82.8935 283.146 89.259C290.327 91.0584 312.865 95.4118 312.865 117.826C312.865 135.954 298.639 149.515 271.83 149.515C250.005 149.515 229.557 138.723 229.836 114.365H250.137V114.368Z" fill="white"/>
<path fill-rule="evenodd" clip-rule="evenodd" d="M506.276 66.7203C508.287 68.7363 511.014 69.8701 513.858 69.8728C516.702 69.8694 519.428 68.7354 521.439 66.7195C523.45 64.7036 524.582 61.9704 524.586 59.1192C524.586 53.2208 519.749 48.3655 513.858 48.3655C507.967 48.3655 503.13 53.2208 503.13 59.1192C503.133 61.9706 504.265 64.7042 506.276 66.7203ZM522.988 59.1166C522.981 56.6915 522.016 54.3678 520.306 52.6535C518.595 50.9392 516.277 49.9737 513.858 49.9682C511.44 49.9751 509.123 50.9412 507.414 52.6554C505.704 54.3695 504.74 56.6924 504.734 59.1166C504.738 61.5421 505.701 63.867 507.411 65.5828C509.121 67.2987 511.439 68.2659 513.858 68.2728C516.278 68.2666 518.597 67.2998 520.308 65.5839C522.019 63.8681 522.982 61.5428 522.988 59.1166ZM518.336 64.521H516.054L514.272 59.9415H511.851V64.521H509.794V53.1709H513.585C515.729 53.1709 518.192 53.5361 518.192 56.8282C518.192 58.689 517.147 59.1868 516.411 59.5373C516.349 59.5669 516.289 59.5954 516.232 59.6236L518.336 64.521ZM516.054 56.6442C516.054 57.6558 515.276 58.1156 514.319 58.1156H511.853V55.1362H514.136C515.362 55.1362 516.054 55.6432 516.054 56.6442Z" fill="white"/>
</svg>
